; NON-PLATED HOLES START AT T1
; THROUGH (PLATED) HOLES START AT T100
M48
INCH
T1C0.086614
T100C0.051750
T101C0.040000
T102C0.043307
T103C0.051181
T104C0.035000
T105C0.042000
T106C0.030000
T107C0.038000
%
T1
X001492Y027101
X001509Y001078
X034130Y027101
X034130Y001076
T100
X022910Y013810
X019949Y018062
X022949Y017062
X019949Y022062
X019910Y013866
X019949Y023118
X022949Y018062
X022949Y022062
X019910Y007810
X022949Y023062
X019910Y008810
X022910Y007810
X019910Y012810
X022910Y008810
X022910Y012810
X019949Y017062
T101
X010917Y004857
X012917Y004857
X014917Y004857
X008177Y024684
X011917Y004857
X013917Y004857
X015917Y004857
X017917Y004857
X019917Y004857
X016917Y004857
X018917Y004857
X008217Y016133
X006217Y016133
X020917Y004857
X022917Y004857
X006177Y020684
X021917Y004857
X023917Y004857
X025917Y004857
X027917Y004857
X029917Y004857
X024917Y004857
X026917Y004857
X028917Y004857
X008177Y020684
X008217Y019133
X006217Y019133
X010917Y003857
X012917Y003857
X014917Y003857
X011917Y003857
X013917Y003857
X015917Y003857
X017917Y003857
X019917Y003857
X016917Y003857
X018917Y003857
X006177Y021684
X008217Y015133
X006217Y015133
X008177Y021684
X020917Y003857
X022917Y003857
X021917Y003857
X023917Y003857
X025917Y003857
X027917Y003857
X029917Y003857
X006177Y024684
X024917Y003857
X026917Y003857
X028917Y003857
T102
X034091Y006778
X034091Y004778
X034091Y007778
X034091Y005778
T103
X018028Y022534
X018028Y014534
X018028Y020534
X015036Y024534
X015024Y020534
X015036Y022534
X015036Y014534
X018028Y024534
T104
X004658Y008007
X005839Y009188
X003658Y005251
X003658Y008007
X015665Y008023
X005873Y011944
X012122Y008023
X004681Y014503
X004839Y006432
X014484Y008023
X016847Y007023
X005839Y003676
X013303Y008023
X015665Y007023
X012122Y007023
X031650Y009542
X004839Y009188
X004681Y013503
X035051Y002967
X004658Y002495
X014484Y007023
X004873Y011944
X034051Y002967
X003658Y002495
X005839Y006432
X004697Y010684
X003697Y010684
X013303Y007023
X031650Y008542
X004839Y003676
X016847Y008023
X004658Y005251
T105
X009721Y024688
X009957Y019136
X024721Y008761
X012083Y016326
X024721Y011741
X009957Y016156
X009721Y021708
X012083Y019306
T106
X012760Y012778
X013760Y012778
X014760Y012778
X012760Y009778
X013760Y009778
X014760Y009778
X015760Y012778
X016760Y012778
X015760Y009778
X016760Y009778
X009760Y012778
X017760Y012778
X010760Y012778
X009760Y009778
X017760Y009778
X011760Y012778
X010760Y009778
X011760Y009778
T107
X025902Y014865
X025854Y027101
X002067Y014483
X002067Y016239
X034091Y021660
X024854Y027101
X034091Y011015
X002063Y022873
X002067Y018975
X002067Y006235
X002067Y002479
X034091Y017212
X034091Y024660
X002067Y011722
X002067Y007991
X034091Y015212
X025902Y015865
X002067Y017239
X034091Y022660
X030355Y027101
X034091Y012015
X002063Y023873
X031355Y027101
X002067Y019975
X028602Y027101
X034091Y019660
X025902Y013865
X027602Y027101
X002067Y013483
X002067Y003479
X034091Y020660
X009248Y027111
X034091Y010015
X002063Y021873
X023103Y027101
X002067Y008991
X022103Y027101
X025902Y018440
X003754Y027111
X002067Y005235
X034091Y016212
X025902Y016865
X004754Y027111
X010248Y027111
X034091Y023660
X006516Y027111
X011996Y027111
X034091Y013015
X007516Y027111
X002067Y010722
X012996Y027111
T00
M30
