G04 MADE WITH FRITZING*
G04 WWW.FRITZING.ORG*
G04 DOUBLE SIDED*
G04 HOLES PLATED*
G04 CONTOUR ON CENTER OF CONTOUR VECTOR*
%ASAXBY*%
%FSLAX23Y23*%
%MOIN*%
%OFA0B0*%
%SFA1.0B1.0*%
%ADD10C,0.084000*%
%ADD11C,0.088000*%
%ADD12C,0.070000*%
%ADD13C,0.085000*%
%ADD14C,0.095750*%
%ADD15C,0.092000*%
%ADD16C,0.096614*%
%ADD17C,0.093307*%
%ADD18C,0.081181*%
%ADD19R,0.084000X0.084000*%
%ADD20R,0.095736X0.095736*%
%ADD21R,0.010142X0.010142*%
%ADD22C,0.030000*%
%ADD23R,0.001000X0.001000*%
%LNMASK1*%
G90*
G70*
G54D10*
X2992Y486D03*
X2892Y486D03*
X2792Y486D03*
X2692Y486D03*
X2592Y486D03*
X2492Y486D03*
X2392Y486D03*
X2292Y486D03*
X2192Y486D03*
X2092Y486D03*
X1992Y486D03*
X1892Y486D03*
X1792Y486D03*
X1692Y486D03*
X1592Y486D03*
X1492Y486D03*
X1392Y486D03*
X1292Y486D03*
X1192Y486D03*
X1092Y486D03*
X2992Y386D03*
X2892Y386D03*
X2792Y386D03*
X2692Y386D03*
X2592Y386D03*
X2492Y386D03*
X2392Y386D03*
X2292Y386D03*
X2192Y386D03*
X2092Y386D03*
X1992Y386D03*
X1892Y386D03*
X1792Y386D03*
X1692Y386D03*
X1592Y386D03*
X1492Y386D03*
X1392Y386D03*
X1292Y386D03*
X1192Y386D03*
X1092Y386D03*
G54D11*
X2590Y1387D03*
X2590Y1487D03*
X2590Y1587D03*
X2590Y1687D03*
X3409Y1966D03*
X3409Y2066D03*
X3409Y2166D03*
X3409Y2266D03*
X3409Y2366D03*
X3409Y2466D03*
X2590Y1844D03*
X3409Y1521D03*
X3409Y1621D03*
X3409Y1721D03*
G54D12*
X618Y2468D03*
X618Y2168D03*
X618Y2068D03*
X818Y2068D03*
X818Y2468D03*
X818Y2168D03*
X618Y2468D03*
X618Y2168D03*
X618Y2068D03*
X818Y2068D03*
X818Y2468D03*
X818Y2168D03*
X622Y1913D03*
X622Y1613D03*
X622Y1513D03*
X822Y1513D03*
X822Y1913D03*
X822Y1613D03*
X622Y1913D03*
X622Y1613D03*
X622Y1513D03*
X822Y1513D03*
X822Y1913D03*
X822Y1613D03*
G54D11*
X2585Y2710D03*
X2485Y2710D03*
X1300Y2711D03*
X1200Y2711D03*
X3136Y2710D03*
X3036Y2710D03*
X752Y2711D03*
X652Y2711D03*
X1025Y2711D03*
X925Y2711D03*
X475Y2711D03*
X375Y2711D03*
X2860Y2710D03*
X2760Y2710D03*
X2310Y2710D03*
X2210Y2710D03*
G54D13*
X468Y1450D03*
X468Y1350D03*
G54D11*
X207Y1998D03*
X207Y1898D03*
X207Y1448D03*
X207Y1348D03*
X207Y1724D03*
X207Y1624D03*
X207Y348D03*
X207Y248D03*
X207Y1172D03*
X207Y1072D03*
X207Y899D03*
X207Y799D03*
X207Y624D03*
X207Y524D03*
G54D13*
X366Y250D03*
X466Y250D03*
X484Y919D03*
X584Y919D03*
X484Y643D03*
X584Y643D03*
X370Y1068D03*
X470Y1068D03*
X487Y1194D03*
X587Y1194D03*
X484Y368D03*
X584Y368D03*
X366Y801D03*
X466Y801D03*
X366Y525D03*
X466Y525D03*
G54D14*
X1995Y1706D03*
X2295Y1806D03*
X1995Y1806D03*
X2295Y2206D03*
X1995Y2206D03*
X2295Y2306D03*
X1995Y2312D03*
X2295Y1706D03*
X1991Y781D03*
X2291Y881D03*
X1991Y881D03*
X2291Y1281D03*
X1991Y1281D03*
X2291Y1381D03*
X1991Y1387D03*
X2291Y781D03*
G54D11*
X206Y2387D03*
X206Y2287D03*
X206Y2187D03*
G54D13*
X1212Y702D03*
X1212Y802D03*
X1685Y702D03*
X1685Y802D03*
X1567Y702D03*
X1567Y802D03*
X1448Y702D03*
X1448Y802D03*
X1330Y702D03*
X1330Y802D03*
G54D15*
X1208Y1931D03*
X1208Y1633D03*
X2472Y1174D03*
X2472Y876D03*
X996Y1616D03*
X996Y1914D03*
X972Y2171D03*
X972Y2469D03*
G54D16*
X3413Y108D03*
X151Y108D03*
X149Y2710D03*
X3413Y2710D03*
G54D11*
X3409Y1002D03*
X3409Y1102D03*
X3409Y1202D03*
X3409Y1302D03*
G54D17*
X3409Y478D03*
X3409Y578D03*
X3409Y678D03*
X3409Y778D03*
G54D13*
X3405Y297D03*
X3505Y297D03*
X3165Y954D03*
X3165Y854D03*
G54D18*
X1504Y2253D03*
X1803Y2053D03*
X1803Y1453D03*
X1504Y1453D03*
X1502Y2053D03*
X1803Y2253D03*
X1504Y2453D03*
X1803Y2453D03*
G54D19*
X2992Y486D03*
G54D20*
X2295Y1706D03*
X2291Y781D03*
G54D21*
X1804Y2453D03*
G54D22*
G36*
X1239Y1901D02*
X1177Y1901D01*
X1177Y1963D01*
X1239Y1963D01*
X1239Y1901D01*
G37*
D02*
G36*
X2503Y1144D02*
X2441Y1144D01*
X2441Y1206D01*
X2503Y1206D01*
X2503Y1144D01*
G37*
D02*
G36*
X965Y1646D02*
X1027Y1646D01*
X1027Y1584D01*
X965Y1584D01*
X965Y1646D01*
G37*
D02*
G36*
X941Y2201D02*
X1003Y2201D01*
X1003Y2139D01*
X941Y2139D01*
X941Y2201D01*
G37*
D02*
G54D23*
X972Y1318D02*
X978Y1318D01*
X1072Y1318D02*
X1078Y1318D01*
X1172Y1318D02*
X1178Y1318D01*
X1272Y1318D02*
X1278Y1318D01*
X1372Y1318D02*
X1378Y1318D01*
X1472Y1318D02*
X1478Y1318D01*
X1572Y1318D02*
X1578Y1318D01*
X1672Y1318D02*
X1678Y1318D01*
X1772Y1318D02*
X1778Y1318D01*
X967Y1317D02*
X983Y1317D01*
X1067Y1317D02*
X1083Y1317D01*
X1167Y1317D02*
X1183Y1317D01*
X1267Y1317D02*
X1283Y1317D01*
X1367Y1317D02*
X1383Y1317D01*
X1467Y1317D02*
X1483Y1317D01*
X1567Y1317D02*
X1583Y1317D01*
X1667Y1317D02*
X1683Y1317D01*
X1767Y1317D02*
X1783Y1317D01*
X964Y1316D02*
X987Y1316D01*
X1064Y1316D02*
X1087Y1316D01*
X1164Y1316D02*
X1186Y1316D01*
X1264Y1316D02*
X1286Y1316D01*
X1364Y1316D02*
X1386Y1316D01*
X1464Y1316D02*
X1486Y1316D01*
X1564Y1316D02*
X1586Y1316D01*
X1664Y1316D02*
X1686Y1316D01*
X1764Y1316D02*
X1786Y1316D01*
X962Y1315D02*
X989Y1315D01*
X1062Y1315D02*
X1089Y1315D01*
X1162Y1315D02*
X1189Y1315D01*
X1262Y1315D02*
X1289Y1315D01*
X1362Y1315D02*
X1389Y1315D01*
X1462Y1315D02*
X1489Y1315D01*
X1562Y1315D02*
X1589Y1315D01*
X1661Y1315D02*
X1689Y1315D01*
X1761Y1315D02*
X1789Y1315D01*
X960Y1314D02*
X991Y1314D01*
X1060Y1314D02*
X1091Y1314D01*
X1160Y1314D02*
X1191Y1314D01*
X1260Y1314D02*
X1291Y1314D01*
X1360Y1314D02*
X1391Y1314D01*
X1460Y1314D02*
X1491Y1314D01*
X1559Y1314D02*
X1591Y1314D01*
X1659Y1314D02*
X1691Y1314D01*
X1759Y1314D02*
X1791Y1314D01*
X958Y1313D02*
X993Y1313D01*
X1058Y1313D02*
X1093Y1313D01*
X1158Y1313D02*
X1193Y1313D01*
X1258Y1313D02*
X1293Y1313D01*
X1358Y1313D02*
X1393Y1313D01*
X1458Y1313D02*
X1493Y1313D01*
X1558Y1313D02*
X1593Y1313D01*
X1658Y1313D02*
X1693Y1313D01*
X1758Y1313D02*
X1793Y1313D01*
X956Y1312D02*
X994Y1312D01*
X1056Y1312D02*
X1094Y1312D01*
X1156Y1312D02*
X1194Y1312D01*
X1256Y1312D02*
X1294Y1312D01*
X1356Y1312D02*
X1394Y1312D01*
X1456Y1312D02*
X1494Y1312D01*
X1556Y1312D02*
X1594Y1312D01*
X1656Y1312D02*
X1694Y1312D01*
X1756Y1312D02*
X1794Y1312D01*
X955Y1311D02*
X996Y1311D01*
X1055Y1311D02*
X1096Y1311D01*
X1155Y1311D02*
X1196Y1311D01*
X1255Y1311D02*
X1296Y1311D01*
X1355Y1311D02*
X1396Y1311D01*
X1455Y1311D02*
X1496Y1311D01*
X1554Y1311D02*
X1596Y1311D01*
X1654Y1311D02*
X1696Y1311D01*
X1754Y1311D02*
X1796Y1311D01*
X953Y1310D02*
X997Y1310D01*
X1053Y1310D02*
X1097Y1310D01*
X1153Y1310D02*
X1197Y1310D01*
X1253Y1310D02*
X1297Y1310D01*
X1353Y1310D02*
X1397Y1310D01*
X1453Y1310D02*
X1497Y1310D01*
X1553Y1310D02*
X1597Y1310D01*
X1653Y1310D02*
X1697Y1310D01*
X1753Y1310D02*
X1797Y1310D01*
X952Y1309D02*
X999Y1309D01*
X1052Y1309D02*
X1099Y1309D01*
X1152Y1309D02*
X1199Y1309D01*
X1252Y1309D02*
X1299Y1309D01*
X1352Y1309D02*
X1399Y1309D01*
X1452Y1309D02*
X1499Y1309D01*
X1552Y1309D02*
X1598Y1309D01*
X1652Y1309D02*
X1698Y1309D01*
X1752Y1309D02*
X1798Y1309D01*
X951Y1308D02*
X1000Y1308D01*
X1051Y1308D02*
X1100Y1308D01*
X1151Y1308D02*
X1200Y1308D01*
X1251Y1308D02*
X1300Y1308D01*
X1351Y1308D02*
X1400Y1308D01*
X1451Y1308D02*
X1500Y1308D01*
X1551Y1308D02*
X1600Y1308D01*
X1651Y1308D02*
X1700Y1308D01*
X1751Y1308D02*
X1800Y1308D01*
X950Y1307D02*
X1001Y1307D01*
X1050Y1307D02*
X1101Y1307D01*
X1150Y1307D02*
X1201Y1307D01*
X1250Y1307D02*
X1301Y1307D01*
X1350Y1307D02*
X1401Y1307D01*
X1450Y1307D02*
X1501Y1307D01*
X1550Y1307D02*
X1601Y1307D01*
X1650Y1307D02*
X1701Y1307D01*
X1750Y1307D02*
X1801Y1307D01*
X949Y1306D02*
X1002Y1306D01*
X1049Y1306D02*
X1102Y1306D01*
X1149Y1306D02*
X1202Y1306D01*
X1249Y1306D02*
X1302Y1306D01*
X1349Y1306D02*
X1402Y1306D01*
X1449Y1306D02*
X1502Y1306D01*
X1548Y1306D02*
X1602Y1306D01*
X1648Y1306D02*
X1702Y1306D01*
X1748Y1306D02*
X1802Y1306D01*
X948Y1305D02*
X1003Y1305D01*
X1048Y1305D02*
X1103Y1305D01*
X1148Y1305D02*
X1203Y1305D01*
X1248Y1305D02*
X1303Y1305D01*
X1348Y1305D02*
X1403Y1305D01*
X1448Y1305D02*
X1503Y1305D01*
X1548Y1305D02*
X1603Y1305D01*
X1647Y1305D02*
X1703Y1305D01*
X1747Y1305D02*
X1803Y1305D01*
X947Y1304D02*
X1004Y1304D01*
X1047Y1304D02*
X1104Y1304D01*
X1147Y1304D02*
X1204Y1304D01*
X1247Y1304D02*
X1304Y1304D01*
X1347Y1304D02*
X1404Y1304D01*
X1447Y1304D02*
X1504Y1304D01*
X1547Y1304D02*
X1604Y1304D01*
X1647Y1304D02*
X1704Y1304D01*
X1747Y1304D02*
X1804Y1304D01*
X946Y1303D02*
X1005Y1303D01*
X1046Y1303D02*
X1105Y1303D01*
X1146Y1303D02*
X1205Y1303D01*
X1246Y1303D02*
X1305Y1303D01*
X1346Y1303D02*
X1405Y1303D01*
X1446Y1303D02*
X1505Y1303D01*
X1546Y1303D02*
X1605Y1303D01*
X1646Y1303D02*
X1705Y1303D01*
X1746Y1303D02*
X1805Y1303D01*
X945Y1302D02*
X1006Y1302D01*
X1045Y1302D02*
X1106Y1302D01*
X1145Y1302D02*
X1206Y1302D01*
X1245Y1302D02*
X1306Y1302D01*
X1345Y1302D02*
X1406Y1302D01*
X1445Y1302D02*
X1506Y1302D01*
X1545Y1302D02*
X1605Y1302D01*
X1645Y1302D02*
X1705Y1302D01*
X1745Y1302D02*
X1805Y1302D01*
X944Y1301D02*
X1006Y1301D01*
X1044Y1301D02*
X1106Y1301D01*
X1144Y1301D02*
X1206Y1301D01*
X1244Y1301D02*
X1306Y1301D01*
X1344Y1301D02*
X1406Y1301D01*
X1444Y1301D02*
X1506Y1301D01*
X1544Y1301D02*
X1606Y1301D01*
X1644Y1301D02*
X1706Y1301D01*
X1744Y1301D02*
X1806Y1301D01*
X943Y1300D02*
X1007Y1300D01*
X1043Y1300D02*
X1107Y1300D01*
X1143Y1300D02*
X1207Y1300D01*
X1243Y1300D02*
X1307Y1300D01*
X1343Y1300D02*
X1407Y1300D01*
X1443Y1300D02*
X1507Y1300D01*
X1543Y1300D02*
X1607Y1300D01*
X1643Y1300D02*
X1707Y1300D01*
X1743Y1300D02*
X1807Y1300D01*
X943Y1299D02*
X1008Y1299D01*
X1043Y1299D02*
X1108Y1299D01*
X1143Y1299D02*
X1208Y1299D01*
X1243Y1299D02*
X1308Y1299D01*
X1343Y1299D02*
X1408Y1299D01*
X1443Y1299D02*
X1508Y1299D01*
X1543Y1299D02*
X1608Y1299D01*
X1643Y1299D02*
X1708Y1299D01*
X1743Y1299D02*
X1808Y1299D01*
X942Y1298D02*
X1009Y1298D01*
X1042Y1298D02*
X1108Y1298D01*
X1142Y1298D02*
X1208Y1298D01*
X1242Y1298D02*
X1308Y1298D01*
X1342Y1298D02*
X1408Y1298D01*
X1442Y1298D02*
X1508Y1298D01*
X1542Y1298D02*
X1608Y1298D01*
X1642Y1298D02*
X1708Y1298D01*
X1742Y1298D02*
X1808Y1298D01*
X941Y1297D02*
X1009Y1297D01*
X1041Y1297D02*
X1109Y1297D01*
X1141Y1297D02*
X1209Y1297D01*
X1241Y1297D02*
X1309Y1297D01*
X1341Y1297D02*
X1409Y1297D01*
X1441Y1297D02*
X1509Y1297D01*
X1541Y1297D02*
X1609Y1297D01*
X1641Y1297D02*
X1709Y1297D01*
X1741Y1297D02*
X1809Y1297D01*
X941Y1296D02*
X1010Y1296D01*
X1041Y1296D02*
X1110Y1296D01*
X1141Y1296D02*
X1210Y1296D01*
X1241Y1296D02*
X1310Y1296D01*
X1341Y1296D02*
X1410Y1296D01*
X1441Y1296D02*
X1510Y1296D01*
X1541Y1296D02*
X1610Y1296D01*
X1641Y1296D02*
X1710Y1296D01*
X1741Y1296D02*
X1810Y1296D01*
X940Y1295D02*
X1010Y1295D01*
X1040Y1295D02*
X1110Y1295D01*
X1140Y1295D02*
X1210Y1295D01*
X1240Y1295D02*
X1310Y1295D01*
X1340Y1295D02*
X1410Y1295D01*
X1440Y1295D02*
X1510Y1295D01*
X1540Y1295D02*
X1610Y1295D01*
X1640Y1295D02*
X1710Y1295D01*
X1740Y1295D02*
X1810Y1295D01*
X940Y1294D02*
X1011Y1294D01*
X1040Y1294D02*
X1111Y1294D01*
X1140Y1294D02*
X1211Y1294D01*
X1240Y1294D02*
X1311Y1294D01*
X1340Y1294D02*
X1411Y1294D01*
X1440Y1294D02*
X1511Y1294D01*
X1540Y1294D02*
X1611Y1294D01*
X1640Y1294D02*
X1711Y1294D01*
X1740Y1294D02*
X1811Y1294D01*
X939Y1293D02*
X1011Y1293D01*
X1039Y1293D02*
X1111Y1293D01*
X1139Y1293D02*
X1211Y1293D01*
X1239Y1293D02*
X1311Y1293D01*
X1339Y1293D02*
X1411Y1293D01*
X1439Y1293D02*
X1511Y1293D01*
X1539Y1293D02*
X1611Y1293D01*
X1639Y1293D02*
X1711Y1293D01*
X1739Y1293D02*
X1811Y1293D01*
X939Y1292D02*
X1012Y1292D01*
X1039Y1292D02*
X1112Y1292D01*
X1139Y1292D02*
X1212Y1292D01*
X1239Y1292D02*
X1312Y1292D01*
X1339Y1292D02*
X1412Y1292D01*
X1439Y1292D02*
X1512Y1292D01*
X1539Y1292D02*
X1612Y1292D01*
X1639Y1292D02*
X1712Y1292D01*
X1739Y1292D02*
X1812Y1292D01*
X938Y1291D02*
X1012Y1291D01*
X1038Y1291D02*
X1112Y1291D01*
X1138Y1291D02*
X1212Y1291D01*
X1238Y1291D02*
X1312Y1291D01*
X1338Y1291D02*
X1412Y1291D01*
X1438Y1291D02*
X1512Y1291D01*
X1538Y1291D02*
X1612Y1291D01*
X1638Y1291D02*
X1712Y1291D01*
X1738Y1291D02*
X1812Y1291D01*
X938Y1290D02*
X1013Y1290D01*
X1038Y1290D02*
X1113Y1290D01*
X1138Y1290D02*
X1213Y1290D01*
X1238Y1290D02*
X1312Y1290D01*
X1338Y1290D02*
X1412Y1290D01*
X1438Y1290D02*
X1512Y1290D01*
X1538Y1290D02*
X1612Y1290D01*
X1638Y1290D02*
X1712Y1290D01*
X1738Y1290D02*
X1812Y1290D01*
X938Y1289D02*
X1013Y1289D01*
X1038Y1289D02*
X1113Y1289D01*
X1138Y1289D02*
X1213Y1289D01*
X1238Y1289D02*
X1313Y1289D01*
X1338Y1289D02*
X1413Y1289D01*
X1438Y1289D02*
X1513Y1289D01*
X1538Y1289D02*
X1613Y1289D01*
X1638Y1289D02*
X1713Y1289D01*
X1738Y1289D02*
X1813Y1289D01*
X937Y1288D02*
X1013Y1288D01*
X1037Y1288D02*
X1113Y1288D01*
X1137Y1288D02*
X1213Y1288D01*
X1237Y1288D02*
X1313Y1288D01*
X1337Y1288D02*
X1413Y1288D01*
X1437Y1288D02*
X1513Y1288D01*
X1537Y1288D02*
X1613Y1288D01*
X1637Y1288D02*
X1713Y1288D01*
X1737Y1288D02*
X1813Y1288D01*
X937Y1287D02*
X1014Y1287D01*
X1037Y1287D02*
X1114Y1287D01*
X1137Y1287D02*
X1213Y1287D01*
X1237Y1287D02*
X1313Y1287D01*
X1337Y1287D02*
X1413Y1287D01*
X1437Y1287D02*
X1513Y1287D01*
X1537Y1287D02*
X1613Y1287D01*
X1637Y1287D02*
X1713Y1287D01*
X1737Y1287D02*
X1813Y1287D01*
X937Y1286D02*
X1014Y1286D01*
X1037Y1286D02*
X1114Y1286D01*
X1137Y1286D02*
X1214Y1286D01*
X1237Y1286D02*
X1314Y1286D01*
X1337Y1286D02*
X1414Y1286D01*
X1437Y1286D02*
X1514Y1286D01*
X1537Y1286D02*
X1614Y1286D01*
X1637Y1286D02*
X1714Y1286D01*
X1737Y1286D02*
X1814Y1286D01*
X937Y1285D02*
X1014Y1285D01*
X1037Y1285D02*
X1114Y1285D01*
X1137Y1285D02*
X1214Y1285D01*
X1237Y1285D02*
X1314Y1285D01*
X1337Y1285D02*
X1414Y1285D01*
X1436Y1285D02*
X1514Y1285D01*
X1536Y1285D02*
X1614Y1285D01*
X1636Y1285D02*
X1714Y1285D01*
X1736Y1285D02*
X1814Y1285D01*
X936Y1284D02*
X1014Y1284D01*
X1036Y1284D02*
X1114Y1284D01*
X1136Y1284D02*
X1214Y1284D01*
X1236Y1284D02*
X1314Y1284D01*
X1336Y1284D02*
X1414Y1284D01*
X1436Y1284D02*
X1514Y1284D01*
X1536Y1284D02*
X1614Y1284D01*
X1636Y1284D02*
X1714Y1284D01*
X1736Y1284D02*
X1814Y1284D01*
X936Y1283D02*
X1014Y1283D01*
X1036Y1283D02*
X1114Y1283D01*
X1136Y1283D02*
X1214Y1283D01*
X1236Y1283D02*
X1314Y1283D01*
X1336Y1283D02*
X1414Y1283D01*
X1436Y1283D02*
X1514Y1283D01*
X1536Y1283D02*
X1614Y1283D01*
X1636Y1283D02*
X1714Y1283D01*
X1736Y1283D02*
X1814Y1283D01*
X936Y1282D02*
X1015Y1282D01*
X1036Y1282D02*
X1115Y1282D01*
X1136Y1282D02*
X1215Y1282D01*
X1236Y1282D02*
X1314Y1282D01*
X1336Y1282D02*
X1414Y1282D01*
X1436Y1282D02*
X1514Y1282D01*
X1536Y1282D02*
X1614Y1282D01*
X1636Y1282D02*
X1714Y1282D01*
X1736Y1282D02*
X1814Y1282D01*
X936Y1281D02*
X1015Y1281D01*
X1036Y1281D02*
X1115Y1281D01*
X1136Y1281D02*
X1215Y1281D01*
X1236Y1281D02*
X1315Y1281D01*
X1336Y1281D02*
X1415Y1281D01*
X1436Y1281D02*
X1515Y1281D01*
X1536Y1281D02*
X1614Y1281D01*
X1636Y1281D02*
X1714Y1281D01*
X1736Y1281D02*
X1814Y1281D01*
X936Y1280D02*
X1015Y1280D01*
X1036Y1280D02*
X1115Y1280D01*
X1136Y1280D02*
X1215Y1280D01*
X1236Y1280D02*
X1315Y1280D01*
X1336Y1280D02*
X1415Y1280D01*
X1436Y1280D02*
X1515Y1280D01*
X1536Y1280D02*
X1615Y1280D01*
X1636Y1280D02*
X1715Y1280D01*
X1736Y1280D02*
X1815Y1280D01*
X936Y1279D02*
X1015Y1279D01*
X1036Y1279D02*
X1115Y1279D01*
X1136Y1279D02*
X1215Y1279D01*
X1236Y1279D02*
X1315Y1279D01*
X1336Y1279D02*
X1415Y1279D01*
X1436Y1279D02*
X1515Y1279D01*
X1536Y1279D02*
X1615Y1279D01*
X1636Y1279D02*
X1715Y1279D01*
X1736Y1279D02*
X1815Y1279D01*
X936Y1278D02*
X1015Y1278D01*
X1036Y1278D02*
X1115Y1278D01*
X1136Y1278D02*
X1215Y1278D01*
X1236Y1278D02*
X1315Y1278D01*
X1336Y1278D02*
X1415Y1278D01*
X1436Y1278D02*
X1515Y1278D01*
X1536Y1278D02*
X1615Y1278D01*
X1636Y1278D02*
X1715Y1278D01*
X1736Y1278D02*
X1815Y1278D01*
X936Y1277D02*
X1015Y1277D01*
X1036Y1277D02*
X1115Y1277D01*
X1136Y1277D02*
X1215Y1277D01*
X1236Y1277D02*
X1315Y1277D01*
X1336Y1277D02*
X1415Y1277D01*
X1436Y1277D02*
X1515Y1277D01*
X1536Y1277D02*
X1615Y1277D01*
X1636Y1277D02*
X1715Y1277D01*
X1736Y1277D02*
X1815Y1277D01*
X936Y1276D02*
X1015Y1276D01*
X1036Y1276D02*
X1115Y1276D01*
X1136Y1276D02*
X1215Y1276D01*
X1236Y1276D02*
X1315Y1276D01*
X1336Y1276D02*
X1415Y1276D01*
X1436Y1276D02*
X1515Y1276D01*
X1536Y1276D02*
X1615Y1276D01*
X1636Y1276D02*
X1715Y1276D01*
X1736Y1276D02*
X1814Y1276D01*
X936Y1275D02*
X1015Y1275D01*
X1036Y1275D02*
X1115Y1275D01*
X1136Y1275D02*
X1215Y1275D01*
X1236Y1275D02*
X1315Y1275D01*
X1336Y1275D02*
X1415Y1275D01*
X1436Y1275D02*
X1515Y1275D01*
X1536Y1275D02*
X1614Y1275D01*
X1636Y1275D02*
X1714Y1275D01*
X1736Y1275D02*
X1814Y1275D01*
X936Y1274D02*
X1014Y1274D01*
X1036Y1274D02*
X1114Y1274D01*
X1136Y1274D02*
X1214Y1274D01*
X1236Y1274D02*
X1314Y1274D01*
X1336Y1274D02*
X1414Y1274D01*
X1436Y1274D02*
X1514Y1274D01*
X1536Y1274D02*
X1614Y1274D01*
X1636Y1274D02*
X1714Y1274D01*
X1736Y1274D02*
X1814Y1274D01*
X936Y1273D02*
X1014Y1273D01*
X1036Y1273D02*
X1114Y1273D01*
X1136Y1273D02*
X1214Y1273D01*
X1236Y1273D02*
X1314Y1273D01*
X1336Y1273D02*
X1414Y1273D01*
X1436Y1273D02*
X1514Y1273D01*
X1536Y1273D02*
X1614Y1273D01*
X1636Y1273D02*
X1714Y1273D01*
X1736Y1273D02*
X1814Y1273D01*
X936Y1272D02*
X1014Y1272D01*
X1036Y1272D02*
X1114Y1272D01*
X1136Y1272D02*
X1214Y1272D01*
X1236Y1272D02*
X1314Y1272D01*
X1336Y1272D02*
X1414Y1272D01*
X1436Y1272D02*
X1514Y1272D01*
X1536Y1272D02*
X1614Y1272D01*
X1636Y1272D02*
X1714Y1272D01*
X1736Y1272D02*
X1814Y1272D01*
X937Y1271D02*
X1014Y1271D01*
X1037Y1271D02*
X1114Y1271D01*
X1137Y1271D02*
X1214Y1271D01*
X1237Y1271D02*
X1314Y1271D01*
X1337Y1271D02*
X1414Y1271D01*
X1437Y1271D02*
X1514Y1271D01*
X1537Y1271D02*
X1614Y1271D01*
X1637Y1271D02*
X1714Y1271D01*
X1737Y1271D02*
X1814Y1271D01*
X937Y1270D02*
X1014Y1270D01*
X1037Y1270D02*
X1114Y1270D01*
X1137Y1270D02*
X1214Y1270D01*
X1237Y1270D02*
X1314Y1270D01*
X1337Y1270D02*
X1414Y1270D01*
X1437Y1270D02*
X1514Y1270D01*
X1537Y1270D02*
X1614Y1270D01*
X1637Y1270D02*
X1714Y1270D01*
X1737Y1270D02*
X1814Y1270D01*
X937Y1269D02*
X1013Y1269D01*
X1037Y1269D02*
X1113Y1269D01*
X1137Y1269D02*
X1213Y1269D01*
X1237Y1269D02*
X1313Y1269D01*
X1337Y1269D02*
X1413Y1269D01*
X1437Y1269D02*
X1513Y1269D01*
X1537Y1269D02*
X1613Y1269D01*
X1637Y1269D02*
X1713Y1269D01*
X1737Y1269D02*
X1813Y1269D01*
X938Y1268D02*
X1013Y1268D01*
X1038Y1268D02*
X1113Y1268D01*
X1137Y1268D02*
X1213Y1268D01*
X1237Y1268D02*
X1313Y1268D01*
X1337Y1268D02*
X1413Y1268D01*
X1437Y1268D02*
X1513Y1268D01*
X1537Y1268D02*
X1613Y1268D01*
X1637Y1268D02*
X1713Y1268D01*
X1737Y1268D02*
X1813Y1268D01*
X938Y1267D02*
X1013Y1267D01*
X1038Y1267D02*
X1113Y1267D01*
X1138Y1267D02*
X1213Y1267D01*
X1238Y1267D02*
X1313Y1267D01*
X1338Y1267D02*
X1413Y1267D01*
X1438Y1267D02*
X1513Y1267D01*
X1538Y1267D02*
X1613Y1267D01*
X1638Y1267D02*
X1713Y1267D01*
X1738Y1267D02*
X1813Y1267D01*
X938Y1266D02*
X1012Y1266D01*
X1038Y1266D02*
X1112Y1266D01*
X1138Y1266D02*
X1212Y1266D01*
X1238Y1266D02*
X1312Y1266D01*
X1338Y1266D02*
X1412Y1266D01*
X1438Y1266D02*
X1512Y1266D01*
X1538Y1266D02*
X1612Y1266D01*
X1638Y1266D02*
X1712Y1266D01*
X1738Y1266D02*
X1812Y1266D01*
X939Y1265D02*
X1012Y1265D01*
X1039Y1265D02*
X1112Y1265D01*
X1139Y1265D02*
X1212Y1265D01*
X1239Y1265D02*
X1312Y1265D01*
X1339Y1265D02*
X1412Y1265D01*
X1439Y1265D02*
X1512Y1265D01*
X1539Y1265D02*
X1612Y1265D01*
X1638Y1265D02*
X1712Y1265D01*
X1738Y1265D02*
X1812Y1265D01*
X939Y1264D02*
X1012Y1264D01*
X1039Y1264D02*
X1112Y1264D01*
X1139Y1264D02*
X1212Y1264D01*
X1239Y1264D02*
X1311Y1264D01*
X1339Y1264D02*
X1411Y1264D01*
X1439Y1264D02*
X1511Y1264D01*
X1539Y1264D02*
X1611Y1264D01*
X1639Y1264D02*
X1711Y1264D01*
X1739Y1264D02*
X1811Y1264D01*
X940Y1263D02*
X1011Y1263D01*
X1040Y1263D02*
X1111Y1263D01*
X1139Y1263D02*
X1211Y1263D01*
X1239Y1263D02*
X1311Y1263D01*
X1339Y1263D02*
X1411Y1263D01*
X1439Y1263D02*
X1511Y1263D01*
X1539Y1263D02*
X1611Y1263D01*
X1639Y1263D02*
X1711Y1263D01*
X1739Y1263D02*
X1811Y1263D01*
X940Y1262D02*
X1011Y1262D01*
X1040Y1262D02*
X1111Y1262D01*
X1140Y1262D02*
X1211Y1262D01*
X1240Y1262D02*
X1311Y1262D01*
X1340Y1262D02*
X1410Y1262D01*
X1440Y1262D02*
X1510Y1262D01*
X1540Y1262D02*
X1610Y1262D01*
X1640Y1262D02*
X1710Y1262D01*
X1740Y1262D02*
X1810Y1262D01*
X941Y1261D02*
X1010Y1261D01*
X1041Y1261D02*
X1110Y1261D01*
X1141Y1261D02*
X1210Y1261D01*
X1241Y1261D02*
X1310Y1261D01*
X1340Y1261D02*
X1410Y1261D01*
X1440Y1261D02*
X1510Y1261D01*
X1540Y1261D02*
X1610Y1261D01*
X1640Y1261D02*
X1710Y1261D01*
X1740Y1261D02*
X1810Y1261D01*
X941Y1260D02*
X1010Y1260D01*
X1041Y1260D02*
X1109Y1260D01*
X1141Y1260D02*
X1209Y1260D01*
X1241Y1260D02*
X1309Y1260D01*
X1341Y1260D02*
X1409Y1260D01*
X1441Y1260D02*
X1509Y1260D01*
X1541Y1260D02*
X1609Y1260D01*
X1641Y1260D02*
X1709Y1260D01*
X1741Y1260D02*
X1809Y1260D01*
X942Y1259D02*
X1009Y1259D01*
X1042Y1259D02*
X1109Y1259D01*
X1142Y1259D02*
X1209Y1259D01*
X1242Y1259D02*
X1309Y1259D01*
X1342Y1259D02*
X1409Y1259D01*
X1442Y1259D02*
X1509Y1259D01*
X1542Y1259D02*
X1609Y1259D01*
X1642Y1259D02*
X1709Y1259D01*
X1742Y1259D02*
X1809Y1259D01*
X942Y1258D02*
X1008Y1258D01*
X1042Y1258D02*
X1108Y1258D01*
X1142Y1258D02*
X1208Y1258D01*
X1242Y1258D02*
X1308Y1258D01*
X1342Y1258D02*
X1408Y1258D01*
X1442Y1258D02*
X1508Y1258D01*
X1542Y1258D02*
X1608Y1258D01*
X1642Y1258D02*
X1708Y1258D01*
X1742Y1258D02*
X1808Y1258D01*
X943Y1257D02*
X1008Y1257D01*
X1043Y1257D02*
X1108Y1257D01*
X1143Y1257D02*
X1208Y1257D01*
X1243Y1257D02*
X1308Y1257D01*
X1343Y1257D02*
X1407Y1257D01*
X1443Y1257D02*
X1507Y1257D01*
X1543Y1257D02*
X1607Y1257D01*
X1643Y1257D02*
X1707Y1257D01*
X1743Y1257D02*
X1807Y1257D01*
X944Y1256D02*
X1007Y1256D01*
X1044Y1256D02*
X1107Y1256D01*
X1144Y1256D02*
X1207Y1256D01*
X1244Y1256D02*
X1307Y1256D01*
X1344Y1256D02*
X1407Y1256D01*
X1444Y1256D02*
X1507Y1256D01*
X1544Y1256D02*
X1607Y1256D01*
X1644Y1256D02*
X1707Y1256D01*
X1744Y1256D02*
X1807Y1256D01*
X945Y1255D02*
X1006Y1255D01*
X1045Y1255D02*
X1106Y1255D01*
X1145Y1255D02*
X1206Y1255D01*
X1244Y1255D02*
X1306Y1255D01*
X1344Y1255D02*
X1406Y1255D01*
X1444Y1255D02*
X1506Y1255D01*
X1544Y1255D02*
X1606Y1255D01*
X1644Y1255D02*
X1706Y1255D01*
X1744Y1255D02*
X1806Y1255D01*
X945Y1254D02*
X1005Y1254D01*
X1045Y1254D02*
X1105Y1254D01*
X1145Y1254D02*
X1205Y1254D01*
X1245Y1254D02*
X1305Y1254D01*
X1345Y1254D02*
X1405Y1254D01*
X1445Y1254D02*
X1505Y1254D01*
X1545Y1254D02*
X1605Y1254D01*
X1645Y1254D02*
X1705Y1254D01*
X1745Y1254D02*
X1805Y1254D01*
X946Y1253D02*
X1004Y1253D01*
X1046Y1253D02*
X1104Y1253D01*
X1146Y1253D02*
X1204Y1253D01*
X1246Y1253D02*
X1304Y1253D01*
X1346Y1253D02*
X1404Y1253D01*
X1446Y1253D02*
X1504Y1253D01*
X1546Y1253D02*
X1604Y1253D01*
X1646Y1253D02*
X1704Y1253D01*
X1746Y1253D02*
X1804Y1253D01*
X947Y1252D02*
X1003Y1252D01*
X1047Y1252D02*
X1103Y1252D01*
X1147Y1252D02*
X1203Y1252D01*
X1247Y1252D02*
X1303Y1252D01*
X1347Y1252D02*
X1403Y1252D01*
X1447Y1252D02*
X1503Y1252D01*
X1547Y1252D02*
X1603Y1252D01*
X1647Y1252D02*
X1703Y1252D01*
X1747Y1252D02*
X1803Y1252D01*
X948Y1251D02*
X1003Y1251D01*
X1048Y1251D02*
X1103Y1251D01*
X1148Y1251D02*
X1203Y1251D01*
X1248Y1251D02*
X1303Y1251D01*
X1348Y1251D02*
X1402Y1251D01*
X1448Y1251D02*
X1502Y1251D01*
X1548Y1251D02*
X1602Y1251D01*
X1648Y1251D02*
X1702Y1251D01*
X1748Y1251D02*
X1802Y1251D01*
X949Y1250D02*
X1002Y1250D01*
X1049Y1250D02*
X1102Y1250D01*
X1149Y1250D02*
X1202Y1250D01*
X1249Y1250D02*
X1301Y1250D01*
X1349Y1250D02*
X1401Y1250D01*
X1449Y1250D02*
X1501Y1250D01*
X1549Y1250D02*
X1601Y1250D01*
X1649Y1250D02*
X1701Y1250D01*
X1749Y1250D02*
X1801Y1250D01*
X950Y1249D02*
X1000Y1249D01*
X1050Y1249D02*
X1100Y1249D01*
X1150Y1249D02*
X1200Y1249D01*
X1250Y1249D02*
X1300Y1249D01*
X1350Y1249D02*
X1400Y1249D01*
X1450Y1249D02*
X1500Y1249D01*
X1550Y1249D02*
X1600Y1249D01*
X1650Y1249D02*
X1700Y1249D01*
X1750Y1249D02*
X1800Y1249D01*
X951Y1248D02*
X999Y1248D01*
X1051Y1248D02*
X1099Y1248D01*
X1151Y1248D02*
X1199Y1248D01*
X1251Y1248D02*
X1299Y1248D01*
X1351Y1248D02*
X1399Y1248D01*
X1451Y1248D02*
X1499Y1248D01*
X1551Y1248D02*
X1599Y1248D01*
X1651Y1248D02*
X1699Y1248D01*
X1751Y1248D02*
X1799Y1248D01*
X953Y1247D02*
X998Y1247D01*
X1053Y1247D02*
X1098Y1247D01*
X1152Y1247D02*
X1198Y1247D01*
X1252Y1247D02*
X1298Y1247D01*
X1352Y1247D02*
X1398Y1247D01*
X1452Y1247D02*
X1498Y1247D01*
X1552Y1247D02*
X1598Y1247D01*
X1652Y1247D02*
X1698Y1247D01*
X1752Y1247D02*
X1798Y1247D01*
X954Y1246D02*
X997Y1246D01*
X1054Y1246D02*
X1097Y1246D01*
X1154Y1246D02*
X1197Y1246D01*
X1254Y1246D02*
X1297Y1246D01*
X1354Y1246D02*
X1397Y1246D01*
X1454Y1246D02*
X1497Y1246D01*
X1554Y1246D02*
X1597Y1246D01*
X1654Y1246D02*
X1697Y1246D01*
X1754Y1246D02*
X1797Y1246D01*
X955Y1245D02*
X995Y1245D01*
X1055Y1245D02*
X1095Y1245D01*
X1155Y1245D02*
X1195Y1245D01*
X1255Y1245D02*
X1295Y1245D01*
X1355Y1245D02*
X1395Y1245D01*
X1455Y1245D02*
X1495Y1245D01*
X1555Y1245D02*
X1595Y1245D01*
X1655Y1245D02*
X1695Y1245D01*
X1755Y1245D02*
X1795Y1245D01*
X957Y1244D02*
X994Y1244D01*
X1057Y1244D02*
X1094Y1244D01*
X1157Y1244D02*
X1194Y1244D01*
X1257Y1244D02*
X1294Y1244D01*
X1357Y1244D02*
X1394Y1244D01*
X1457Y1244D02*
X1494Y1244D01*
X1557Y1244D02*
X1594Y1244D01*
X1657Y1244D02*
X1694Y1244D01*
X1757Y1244D02*
X1794Y1244D01*
X959Y1243D02*
X992Y1243D01*
X1059Y1243D02*
X1092Y1243D01*
X1159Y1243D02*
X1192Y1243D01*
X1258Y1243D02*
X1292Y1243D01*
X1358Y1243D02*
X1392Y1243D01*
X1458Y1243D02*
X1492Y1243D01*
X1558Y1243D02*
X1592Y1243D01*
X1658Y1243D02*
X1692Y1243D01*
X1758Y1243D02*
X1792Y1243D01*
X960Y1242D02*
X990Y1242D01*
X1060Y1242D02*
X1090Y1242D01*
X1160Y1242D02*
X1190Y1242D01*
X1260Y1242D02*
X1290Y1242D01*
X1360Y1242D02*
X1390Y1242D01*
X1460Y1242D02*
X1490Y1242D01*
X1560Y1242D02*
X1590Y1242D01*
X1660Y1242D02*
X1690Y1242D01*
X1760Y1242D02*
X1790Y1242D01*
X963Y1241D02*
X988Y1241D01*
X1063Y1241D02*
X1088Y1241D01*
X1163Y1241D02*
X1188Y1241D01*
X1263Y1241D02*
X1288Y1241D01*
X1363Y1241D02*
X1388Y1241D01*
X1463Y1241D02*
X1488Y1241D01*
X1563Y1241D02*
X1588Y1241D01*
X1663Y1241D02*
X1688Y1241D01*
X1763Y1241D02*
X1788Y1241D01*
X965Y1240D02*
X985Y1240D01*
X1065Y1240D02*
X1085Y1240D01*
X1165Y1240D02*
X1185Y1240D01*
X1265Y1240D02*
X1285Y1240D01*
X1365Y1240D02*
X1385Y1240D01*
X1465Y1240D02*
X1485Y1240D01*
X1565Y1240D02*
X1585Y1240D01*
X1665Y1240D02*
X1685Y1240D01*
X1765Y1240D02*
X1785Y1240D01*
X969Y1239D02*
X982Y1239D01*
X1069Y1239D02*
X1082Y1239D01*
X1169Y1239D02*
X1182Y1239D01*
X1269Y1239D02*
X1282Y1239D01*
X1369Y1239D02*
X1382Y1239D01*
X1469Y1239D02*
X1482Y1239D01*
X1569Y1239D02*
X1582Y1239D01*
X1669Y1239D02*
X1682Y1239D01*
X1769Y1239D02*
X1781Y1239D01*
X972Y1018D02*
X979Y1018D01*
X1072Y1018D02*
X1079Y1018D01*
X1172Y1018D02*
X1179Y1018D01*
X1272Y1018D02*
X1279Y1018D01*
X1372Y1018D02*
X1379Y1018D01*
X1472Y1018D02*
X1479Y1018D01*
X1572Y1018D02*
X1578Y1018D01*
X1672Y1018D02*
X1678Y1018D01*
X1772Y1018D02*
X1778Y1018D01*
X967Y1017D02*
X984Y1017D01*
X1067Y1017D02*
X1083Y1017D01*
X1167Y1017D02*
X1183Y1017D01*
X1267Y1017D02*
X1283Y1017D01*
X1367Y1017D02*
X1383Y1017D01*
X1467Y1017D02*
X1483Y1017D01*
X1567Y1017D02*
X1583Y1017D01*
X1667Y1017D02*
X1683Y1017D01*
X1767Y1017D02*
X1783Y1017D01*
X964Y1016D02*
X987Y1016D01*
X1064Y1016D02*
X1087Y1016D01*
X1164Y1016D02*
X1187Y1016D01*
X1264Y1016D02*
X1287Y1016D01*
X1364Y1016D02*
X1387Y1016D01*
X1464Y1016D02*
X1487Y1016D01*
X1564Y1016D02*
X1586Y1016D01*
X1664Y1016D02*
X1686Y1016D01*
X1764Y1016D02*
X1786Y1016D01*
X962Y1015D02*
X989Y1015D01*
X1062Y1015D02*
X1089Y1015D01*
X1162Y1015D02*
X1189Y1015D01*
X1261Y1015D02*
X1289Y1015D01*
X1361Y1015D02*
X1389Y1015D01*
X1461Y1015D02*
X1489Y1015D01*
X1561Y1015D02*
X1589Y1015D01*
X1661Y1015D02*
X1689Y1015D01*
X1761Y1015D02*
X1789Y1015D01*
X960Y1014D02*
X991Y1014D01*
X1060Y1014D02*
X1091Y1014D01*
X1160Y1014D02*
X1191Y1014D01*
X1259Y1014D02*
X1291Y1014D01*
X1359Y1014D02*
X1391Y1014D01*
X1459Y1014D02*
X1491Y1014D01*
X1559Y1014D02*
X1591Y1014D01*
X1659Y1014D02*
X1691Y1014D01*
X1759Y1014D02*
X1791Y1014D01*
X958Y1013D02*
X993Y1013D01*
X1058Y1013D02*
X1093Y1013D01*
X1158Y1013D02*
X1193Y1013D01*
X1258Y1013D02*
X1293Y1013D01*
X1358Y1013D02*
X1393Y1013D01*
X1458Y1013D02*
X1493Y1013D01*
X1558Y1013D02*
X1593Y1013D01*
X1658Y1013D02*
X1693Y1013D01*
X1758Y1013D02*
X1793Y1013D01*
X956Y1012D02*
X995Y1012D01*
X1056Y1012D02*
X1094Y1012D01*
X1156Y1012D02*
X1194Y1012D01*
X1256Y1012D02*
X1294Y1012D01*
X1356Y1012D02*
X1394Y1012D01*
X1456Y1012D02*
X1494Y1012D01*
X1556Y1012D02*
X1594Y1012D01*
X1656Y1012D02*
X1694Y1012D01*
X1756Y1012D02*
X1794Y1012D01*
X955Y1011D02*
X996Y1011D01*
X1055Y1011D02*
X1096Y1011D01*
X1155Y1011D02*
X1196Y1011D01*
X1254Y1011D02*
X1296Y1011D01*
X1354Y1011D02*
X1396Y1011D01*
X1454Y1011D02*
X1496Y1011D01*
X1554Y1011D02*
X1596Y1011D01*
X1654Y1011D02*
X1696Y1011D01*
X1754Y1011D02*
X1796Y1011D01*
X953Y1010D02*
X997Y1010D01*
X1053Y1010D02*
X1097Y1010D01*
X1153Y1010D02*
X1197Y1010D01*
X1253Y1010D02*
X1297Y1010D01*
X1353Y1010D02*
X1397Y1010D01*
X1453Y1010D02*
X1497Y1010D01*
X1553Y1010D02*
X1597Y1010D01*
X1653Y1010D02*
X1697Y1010D01*
X1753Y1010D02*
X1797Y1010D01*
X952Y1009D02*
X999Y1009D01*
X1052Y1009D02*
X1099Y1009D01*
X1152Y1009D02*
X1199Y1009D01*
X1252Y1009D02*
X1299Y1009D01*
X1352Y1009D02*
X1399Y1009D01*
X1452Y1009D02*
X1499Y1009D01*
X1552Y1009D02*
X1599Y1009D01*
X1652Y1009D02*
X1699Y1009D01*
X1752Y1009D02*
X1799Y1009D01*
X951Y1008D02*
X1000Y1008D01*
X1051Y1008D02*
X1100Y1008D01*
X1151Y1008D02*
X1200Y1008D01*
X1251Y1008D02*
X1300Y1008D01*
X1351Y1008D02*
X1400Y1008D01*
X1451Y1008D02*
X1500Y1008D01*
X1551Y1008D02*
X1600Y1008D01*
X1651Y1008D02*
X1700Y1008D01*
X1751Y1008D02*
X1800Y1008D01*
X950Y1007D02*
X1001Y1007D01*
X1050Y1007D02*
X1101Y1007D01*
X1150Y1007D02*
X1201Y1007D01*
X1250Y1007D02*
X1301Y1007D01*
X1350Y1007D02*
X1401Y1007D01*
X1450Y1007D02*
X1501Y1007D01*
X1550Y1007D02*
X1601Y1007D01*
X1649Y1007D02*
X1701Y1007D01*
X1749Y1007D02*
X1801Y1007D01*
X949Y1006D02*
X1002Y1006D01*
X1049Y1006D02*
X1102Y1006D01*
X1149Y1006D02*
X1202Y1006D01*
X1249Y1006D02*
X1302Y1006D01*
X1348Y1006D02*
X1402Y1006D01*
X1448Y1006D02*
X1502Y1006D01*
X1548Y1006D02*
X1602Y1006D01*
X1648Y1006D02*
X1702Y1006D01*
X1748Y1006D02*
X1802Y1006D01*
X948Y1005D02*
X1003Y1005D01*
X1048Y1005D02*
X1103Y1005D01*
X1148Y1005D02*
X1203Y1005D01*
X1248Y1005D02*
X1303Y1005D01*
X1348Y1005D02*
X1403Y1005D01*
X1447Y1005D02*
X1503Y1005D01*
X1547Y1005D02*
X1603Y1005D01*
X1647Y1005D02*
X1703Y1005D01*
X1747Y1005D02*
X1803Y1005D01*
X947Y1004D02*
X1004Y1004D01*
X1047Y1004D02*
X1104Y1004D01*
X1147Y1004D02*
X1204Y1004D01*
X1247Y1004D02*
X1304Y1004D01*
X1347Y1004D02*
X1404Y1004D01*
X1447Y1004D02*
X1504Y1004D01*
X1547Y1004D02*
X1604Y1004D01*
X1647Y1004D02*
X1704Y1004D01*
X1746Y1004D02*
X1804Y1004D01*
X946Y1003D02*
X1005Y1003D01*
X1046Y1003D02*
X1105Y1003D01*
X1146Y1003D02*
X1205Y1003D01*
X1246Y1003D02*
X1305Y1003D01*
X1346Y1003D02*
X1405Y1003D01*
X1446Y1003D02*
X1505Y1003D01*
X1546Y1003D02*
X1605Y1003D01*
X1646Y1003D02*
X1705Y1003D01*
X1746Y1003D02*
X1805Y1003D01*
X945Y1002D02*
X1006Y1002D01*
X1045Y1002D02*
X1106Y1002D01*
X1145Y1002D02*
X1206Y1002D01*
X1245Y1002D02*
X1306Y1002D01*
X1345Y1002D02*
X1406Y1002D01*
X1445Y1002D02*
X1506Y1002D01*
X1545Y1002D02*
X1606Y1002D01*
X1645Y1002D02*
X1705Y1002D01*
X1745Y1002D02*
X1805Y1002D01*
X944Y1001D02*
X1006Y1001D01*
X1044Y1001D02*
X1106Y1001D01*
X1144Y1001D02*
X1206Y1001D01*
X1244Y1001D02*
X1306Y1001D01*
X1344Y1001D02*
X1406Y1001D01*
X1444Y1001D02*
X1506Y1001D01*
X1544Y1001D02*
X1606Y1001D01*
X1644Y1001D02*
X1706Y1001D01*
X1744Y1001D02*
X1806Y1001D01*
X943Y1000D02*
X1007Y1000D01*
X1043Y1000D02*
X1107Y1000D01*
X1143Y1000D02*
X1207Y1000D01*
X1243Y1000D02*
X1307Y1000D01*
X1343Y1000D02*
X1407Y1000D01*
X1443Y1000D02*
X1507Y1000D01*
X1543Y1000D02*
X1607Y1000D01*
X1643Y1000D02*
X1707Y1000D01*
X1743Y1000D02*
X1807Y1000D01*
X943Y999D02*
X1008Y999D01*
X1043Y999D02*
X1108Y999D01*
X1143Y999D02*
X1208Y999D01*
X1243Y999D02*
X1308Y999D01*
X1343Y999D02*
X1408Y999D01*
X1443Y999D02*
X1508Y999D01*
X1543Y999D02*
X1608Y999D01*
X1643Y999D02*
X1708Y999D01*
X1743Y999D02*
X1808Y999D01*
X942Y998D02*
X1009Y998D01*
X1042Y998D02*
X1109Y998D01*
X1142Y998D02*
X1208Y998D01*
X1242Y998D02*
X1308Y998D01*
X1342Y998D02*
X1408Y998D01*
X1442Y998D02*
X1508Y998D01*
X1542Y998D02*
X1608Y998D01*
X1642Y998D02*
X1708Y998D01*
X1742Y998D02*
X1808Y998D01*
X941Y997D02*
X1009Y997D01*
X1041Y997D02*
X1109Y997D01*
X1141Y997D02*
X1209Y997D01*
X1241Y997D02*
X1309Y997D01*
X1341Y997D02*
X1409Y997D01*
X1441Y997D02*
X1509Y997D01*
X1541Y997D02*
X1609Y997D01*
X1641Y997D02*
X1709Y997D01*
X1741Y997D02*
X1809Y997D01*
X941Y996D02*
X1010Y996D01*
X1041Y996D02*
X1110Y996D01*
X1141Y996D02*
X1210Y996D01*
X1241Y996D02*
X1310Y996D01*
X1341Y996D02*
X1410Y996D01*
X1441Y996D02*
X1510Y996D01*
X1541Y996D02*
X1610Y996D01*
X1641Y996D02*
X1710Y996D01*
X1741Y996D02*
X1810Y996D01*
X940Y995D02*
X1010Y995D01*
X1040Y995D02*
X1110Y995D01*
X1140Y995D02*
X1210Y995D01*
X1240Y995D02*
X1310Y995D01*
X1340Y995D02*
X1410Y995D01*
X1440Y995D02*
X1510Y995D01*
X1540Y995D02*
X1610Y995D01*
X1640Y995D02*
X1710Y995D01*
X1740Y995D02*
X1810Y995D01*
X940Y994D02*
X1011Y994D01*
X1040Y994D02*
X1111Y994D01*
X1140Y994D02*
X1211Y994D01*
X1240Y994D02*
X1311Y994D01*
X1340Y994D02*
X1411Y994D01*
X1440Y994D02*
X1511Y994D01*
X1540Y994D02*
X1611Y994D01*
X1640Y994D02*
X1711Y994D01*
X1740Y994D02*
X1811Y994D01*
X939Y993D02*
X1011Y993D01*
X1039Y993D02*
X1111Y993D01*
X1139Y993D02*
X1211Y993D01*
X1239Y993D02*
X1311Y993D01*
X1339Y993D02*
X1411Y993D01*
X1439Y993D02*
X1511Y993D01*
X1539Y993D02*
X1611Y993D01*
X1639Y993D02*
X1711Y993D01*
X1739Y993D02*
X1811Y993D01*
X939Y992D02*
X1012Y992D01*
X1039Y992D02*
X1112Y992D01*
X1139Y992D02*
X1212Y992D01*
X1239Y992D02*
X1312Y992D01*
X1339Y992D02*
X1412Y992D01*
X1439Y992D02*
X1512Y992D01*
X1539Y992D02*
X1612Y992D01*
X1639Y992D02*
X1712Y992D01*
X1739Y992D02*
X1812Y992D01*
X938Y991D02*
X1012Y991D01*
X1038Y991D02*
X1112Y991D01*
X1138Y991D02*
X1212Y991D01*
X1238Y991D02*
X1312Y991D01*
X1338Y991D02*
X1412Y991D01*
X1438Y991D02*
X1512Y991D01*
X1538Y991D02*
X1612Y991D01*
X1638Y991D02*
X1712Y991D01*
X1738Y991D02*
X1812Y991D01*
X938Y990D02*
X1013Y990D01*
X1038Y990D02*
X1113Y990D01*
X1138Y990D02*
X1213Y990D01*
X1238Y990D02*
X1313Y990D01*
X1338Y990D02*
X1412Y990D01*
X1438Y990D02*
X1512Y990D01*
X1538Y990D02*
X1612Y990D01*
X1638Y990D02*
X1712Y990D01*
X1738Y990D02*
X1812Y990D01*
X938Y989D02*
X1013Y989D01*
X1038Y989D02*
X1113Y989D01*
X1138Y989D02*
X1213Y989D01*
X1238Y989D02*
X1313Y989D01*
X1338Y989D02*
X1413Y989D01*
X1438Y989D02*
X1513Y989D01*
X1538Y989D02*
X1613Y989D01*
X1638Y989D02*
X1713Y989D01*
X1738Y989D02*
X1813Y989D01*
X937Y988D02*
X1013Y988D01*
X1037Y988D02*
X1113Y988D01*
X1137Y988D02*
X1213Y988D01*
X1237Y988D02*
X1313Y988D01*
X1337Y988D02*
X1413Y988D01*
X1437Y988D02*
X1513Y988D01*
X1537Y988D02*
X1613Y988D01*
X1637Y988D02*
X1713Y988D01*
X1737Y988D02*
X1813Y988D01*
X937Y987D02*
X1014Y987D01*
X1037Y987D02*
X1114Y987D01*
X1137Y987D02*
X1213Y987D01*
X1237Y987D02*
X1313Y987D01*
X1337Y987D02*
X1413Y987D01*
X1437Y987D02*
X1513Y987D01*
X1537Y987D02*
X1613Y987D01*
X1637Y987D02*
X1713Y987D01*
X1737Y987D02*
X1813Y987D01*
X937Y986D02*
X1014Y986D01*
X1037Y986D02*
X1114Y986D01*
X1137Y986D02*
X1214Y986D01*
X1237Y986D02*
X1314Y986D01*
X1337Y986D02*
X1414Y986D01*
X1437Y986D02*
X1514Y986D01*
X1537Y986D02*
X1614Y986D01*
X1637Y986D02*
X1714Y986D01*
X1737Y986D02*
X1814Y986D01*
X937Y985D02*
X1014Y985D01*
X1037Y985D02*
X1114Y985D01*
X1137Y985D02*
X1214Y985D01*
X1237Y985D02*
X1314Y985D01*
X1336Y985D02*
X1414Y985D01*
X1436Y985D02*
X1514Y985D01*
X1536Y985D02*
X1614Y985D01*
X1636Y985D02*
X1714Y985D01*
X1736Y985D02*
X1814Y985D01*
X936Y984D02*
X1014Y984D01*
X1036Y984D02*
X1114Y984D01*
X1136Y984D02*
X1214Y984D01*
X1236Y984D02*
X1314Y984D01*
X1336Y984D02*
X1414Y984D01*
X1436Y984D02*
X1514Y984D01*
X1536Y984D02*
X1614Y984D01*
X1636Y984D02*
X1714Y984D01*
X1736Y984D02*
X1814Y984D01*
X936Y983D02*
X1014Y983D01*
X1036Y983D02*
X1114Y983D01*
X1136Y983D02*
X1214Y983D01*
X1236Y983D02*
X1314Y983D01*
X1336Y983D02*
X1414Y983D01*
X1436Y983D02*
X1514Y983D01*
X1536Y983D02*
X1614Y983D01*
X1636Y983D02*
X1714Y983D01*
X1736Y983D02*
X1814Y983D01*
X936Y982D02*
X1015Y982D01*
X1036Y982D02*
X1115Y982D01*
X1136Y982D02*
X1215Y982D01*
X1236Y982D02*
X1315Y982D01*
X1336Y982D02*
X1414Y982D01*
X1436Y982D02*
X1514Y982D01*
X1536Y982D02*
X1614Y982D01*
X1636Y982D02*
X1714Y982D01*
X1736Y982D02*
X1814Y982D01*
X936Y981D02*
X1015Y981D01*
X1036Y981D02*
X1115Y981D01*
X1136Y981D02*
X1215Y981D01*
X1236Y981D02*
X1315Y981D01*
X1336Y981D02*
X1415Y981D01*
X1436Y981D02*
X1515Y981D01*
X1536Y981D02*
X1615Y981D01*
X1636Y981D02*
X1714Y981D01*
X1736Y981D02*
X1814Y981D01*
X936Y980D02*
X1015Y980D01*
X1036Y980D02*
X1115Y980D01*
X1136Y980D02*
X1215Y980D01*
X1236Y980D02*
X1315Y980D01*
X1336Y980D02*
X1415Y980D01*
X1436Y980D02*
X1515Y980D01*
X1536Y980D02*
X1615Y980D01*
X1636Y980D02*
X1715Y980D01*
X1736Y980D02*
X1815Y980D01*
X936Y979D02*
X1015Y979D01*
X1036Y979D02*
X1115Y979D01*
X1136Y979D02*
X1215Y979D01*
X1236Y979D02*
X1315Y979D01*
X1336Y979D02*
X1415Y979D01*
X1436Y979D02*
X1515Y979D01*
X1536Y979D02*
X1615Y979D01*
X1636Y979D02*
X1715Y979D01*
X1736Y979D02*
X1815Y979D01*
X936Y978D02*
X1015Y978D01*
X1036Y978D02*
X1115Y978D01*
X1136Y978D02*
X1215Y978D01*
X1236Y978D02*
X1315Y978D01*
X1336Y978D02*
X1415Y978D01*
X1436Y978D02*
X1515Y978D01*
X1536Y978D02*
X1615Y978D01*
X1636Y978D02*
X1715Y978D01*
X1736Y978D02*
X1815Y978D01*
X936Y977D02*
X1015Y977D01*
X1036Y977D02*
X1115Y977D01*
X1136Y977D02*
X1215Y977D01*
X1236Y977D02*
X1315Y977D01*
X1336Y977D02*
X1415Y977D01*
X1436Y977D02*
X1515Y977D01*
X1536Y977D02*
X1615Y977D01*
X1636Y977D02*
X1715Y977D01*
X1736Y977D02*
X1815Y977D01*
X936Y976D02*
X1015Y976D01*
X1036Y976D02*
X1115Y976D01*
X1136Y976D02*
X1215Y976D01*
X1236Y976D02*
X1315Y976D01*
X1336Y976D02*
X1415Y976D01*
X1436Y976D02*
X1515Y976D01*
X1536Y976D02*
X1615Y976D01*
X1636Y976D02*
X1715Y976D01*
X1736Y976D02*
X1814Y976D01*
X936Y975D02*
X1015Y975D01*
X1036Y975D02*
X1115Y975D01*
X1136Y975D02*
X1215Y975D01*
X1236Y975D02*
X1315Y975D01*
X1336Y975D02*
X1415Y975D01*
X1436Y975D02*
X1514Y975D01*
X1536Y975D02*
X1614Y975D01*
X1636Y975D02*
X1714Y975D01*
X1736Y975D02*
X1814Y975D01*
X936Y974D02*
X1014Y974D01*
X1036Y974D02*
X1114Y974D01*
X1136Y974D02*
X1214Y974D01*
X1236Y974D02*
X1314Y974D01*
X1336Y974D02*
X1414Y974D01*
X1436Y974D02*
X1514Y974D01*
X1536Y974D02*
X1614Y974D01*
X1636Y974D02*
X1714Y974D01*
X1736Y974D02*
X1814Y974D01*
X936Y973D02*
X1014Y973D01*
X1036Y973D02*
X1114Y973D01*
X1136Y973D02*
X1214Y973D01*
X1236Y973D02*
X1314Y973D01*
X1336Y973D02*
X1414Y973D01*
X1436Y973D02*
X1514Y973D01*
X1536Y973D02*
X1614Y973D01*
X1636Y973D02*
X1714Y973D01*
X1736Y973D02*
X1814Y973D01*
X936Y972D02*
X1014Y972D01*
X1036Y972D02*
X1114Y972D01*
X1136Y972D02*
X1214Y972D01*
X1236Y972D02*
X1314Y972D01*
X1336Y972D02*
X1414Y972D01*
X1436Y972D02*
X1514Y972D01*
X1536Y972D02*
X1614Y972D01*
X1636Y972D02*
X1714Y972D01*
X1736Y972D02*
X1814Y972D01*
X937Y971D02*
X1014Y971D01*
X1037Y971D02*
X1114Y971D01*
X1137Y971D02*
X1214Y971D01*
X1237Y971D02*
X1314Y971D01*
X1337Y971D02*
X1414Y971D01*
X1437Y971D02*
X1514Y971D01*
X1537Y971D02*
X1614Y971D01*
X1637Y971D02*
X1714Y971D01*
X1737Y971D02*
X1814Y971D01*
X937Y970D02*
X1014Y970D01*
X1037Y970D02*
X1114Y970D01*
X1137Y970D02*
X1214Y970D01*
X1237Y970D02*
X1314Y970D01*
X1337Y970D02*
X1414Y970D01*
X1437Y970D02*
X1514Y970D01*
X1537Y970D02*
X1614Y970D01*
X1637Y970D02*
X1714Y970D01*
X1737Y970D02*
X1814Y970D01*
X937Y969D02*
X1013Y969D01*
X1037Y969D02*
X1113Y969D01*
X1137Y969D02*
X1213Y969D01*
X1237Y969D02*
X1313Y969D01*
X1337Y969D02*
X1413Y969D01*
X1437Y969D02*
X1513Y969D01*
X1537Y969D02*
X1613Y969D01*
X1637Y969D02*
X1713Y969D01*
X1737Y969D02*
X1813Y969D01*
X938Y968D02*
X1013Y968D01*
X1038Y968D02*
X1113Y968D01*
X1137Y968D02*
X1213Y968D01*
X1237Y968D02*
X1313Y968D01*
X1337Y968D02*
X1413Y968D01*
X1437Y968D02*
X1513Y968D01*
X1537Y968D02*
X1613Y968D01*
X1637Y968D02*
X1713Y968D01*
X1737Y968D02*
X1813Y968D01*
X938Y967D02*
X1013Y967D01*
X1038Y967D02*
X1113Y967D01*
X1138Y967D02*
X1213Y967D01*
X1238Y967D02*
X1313Y967D01*
X1338Y967D02*
X1413Y967D01*
X1438Y967D02*
X1513Y967D01*
X1538Y967D02*
X1613Y967D01*
X1638Y967D02*
X1713Y967D01*
X1738Y967D02*
X1813Y967D01*
X938Y966D02*
X1012Y966D01*
X1038Y966D02*
X1112Y966D01*
X1138Y966D02*
X1212Y966D01*
X1238Y966D02*
X1312Y966D01*
X1338Y966D02*
X1412Y966D01*
X1438Y966D02*
X1512Y966D01*
X1538Y966D02*
X1612Y966D01*
X1638Y966D02*
X1712Y966D01*
X1738Y966D02*
X1812Y966D01*
X939Y965D02*
X1012Y965D01*
X1039Y965D02*
X1112Y965D01*
X1139Y965D02*
X1212Y965D01*
X1239Y965D02*
X1312Y965D01*
X1339Y965D02*
X1412Y965D01*
X1439Y965D02*
X1512Y965D01*
X1539Y965D02*
X1612Y965D01*
X1639Y965D02*
X1712Y965D01*
X1738Y965D02*
X1812Y965D01*
X939Y964D02*
X1012Y964D01*
X1039Y964D02*
X1112Y964D01*
X1139Y964D02*
X1212Y964D01*
X1239Y964D02*
X1311Y964D01*
X1339Y964D02*
X1411Y964D01*
X1439Y964D02*
X1511Y964D01*
X1539Y964D02*
X1611Y964D01*
X1639Y964D02*
X1711Y964D01*
X1739Y964D02*
X1811Y964D01*
X940Y963D02*
X1011Y963D01*
X1040Y963D02*
X1111Y963D01*
X1140Y963D02*
X1211Y963D01*
X1239Y963D02*
X1311Y963D01*
X1339Y963D02*
X1411Y963D01*
X1439Y963D02*
X1511Y963D01*
X1539Y963D02*
X1611Y963D01*
X1639Y963D02*
X1711Y963D01*
X1739Y963D02*
X1811Y963D01*
X940Y962D02*
X1011Y962D01*
X1040Y962D02*
X1111Y962D01*
X1140Y962D02*
X1211Y962D01*
X1240Y962D02*
X1310Y962D01*
X1340Y962D02*
X1410Y962D01*
X1440Y962D02*
X1510Y962D01*
X1540Y962D02*
X1610Y962D01*
X1640Y962D02*
X1710Y962D01*
X1740Y962D02*
X1810Y962D01*
X941Y961D02*
X1010Y961D01*
X1041Y961D02*
X1110Y961D01*
X1141Y961D02*
X1210Y961D01*
X1241Y961D02*
X1310Y961D01*
X1341Y961D02*
X1410Y961D01*
X1440Y961D02*
X1510Y961D01*
X1540Y961D02*
X1610Y961D01*
X1640Y961D02*
X1710Y961D01*
X1740Y961D02*
X1810Y961D01*
X941Y960D02*
X1009Y960D01*
X1041Y960D02*
X1109Y960D01*
X1141Y960D02*
X1209Y960D01*
X1241Y960D02*
X1309Y960D01*
X1341Y960D02*
X1409Y960D01*
X1441Y960D02*
X1509Y960D01*
X1541Y960D02*
X1609Y960D01*
X1641Y960D02*
X1709Y960D01*
X1741Y960D02*
X1809Y960D01*
X942Y959D02*
X1009Y959D01*
X1042Y959D02*
X1109Y959D01*
X1142Y959D02*
X1209Y959D01*
X1242Y959D02*
X1309Y959D01*
X1342Y959D02*
X1409Y959D01*
X1442Y959D02*
X1509Y959D01*
X1542Y959D02*
X1609Y959D01*
X1642Y959D02*
X1709Y959D01*
X1742Y959D02*
X1809Y959D01*
X942Y958D02*
X1008Y958D01*
X1042Y958D02*
X1108Y958D01*
X1142Y958D02*
X1208Y958D01*
X1242Y958D02*
X1308Y958D01*
X1342Y958D02*
X1408Y958D01*
X1442Y958D02*
X1508Y958D01*
X1542Y958D02*
X1608Y958D01*
X1642Y958D02*
X1708Y958D01*
X1742Y958D02*
X1808Y958D01*
X943Y957D02*
X1008Y957D01*
X1043Y957D02*
X1108Y957D01*
X1143Y957D02*
X1208Y957D01*
X1243Y957D02*
X1307Y957D01*
X1343Y957D02*
X1407Y957D01*
X1443Y957D02*
X1507Y957D01*
X1543Y957D02*
X1607Y957D01*
X1643Y957D02*
X1707Y957D01*
X1743Y957D02*
X1807Y957D01*
X944Y956D02*
X1007Y956D01*
X1044Y956D02*
X1107Y956D01*
X1144Y956D02*
X1207Y956D01*
X1244Y956D02*
X1307Y956D01*
X1344Y956D02*
X1407Y956D01*
X1444Y956D02*
X1507Y956D01*
X1544Y956D02*
X1607Y956D01*
X1644Y956D02*
X1707Y956D01*
X1744Y956D02*
X1807Y956D01*
X945Y955D02*
X1006Y955D01*
X1045Y955D02*
X1106Y955D01*
X1145Y955D02*
X1206Y955D01*
X1245Y955D02*
X1306Y955D01*
X1345Y955D02*
X1406Y955D01*
X1444Y955D02*
X1506Y955D01*
X1544Y955D02*
X1606Y955D01*
X1644Y955D02*
X1706Y955D01*
X1744Y955D02*
X1806Y955D01*
X945Y954D02*
X1005Y954D01*
X1045Y954D02*
X1105Y954D01*
X1145Y954D02*
X1205Y954D01*
X1245Y954D02*
X1305Y954D01*
X1345Y954D02*
X1405Y954D01*
X1445Y954D02*
X1505Y954D01*
X1545Y954D02*
X1605Y954D01*
X1645Y954D02*
X1705Y954D01*
X1745Y954D02*
X1805Y954D01*
X946Y953D02*
X1004Y953D01*
X1046Y953D02*
X1104Y953D01*
X1146Y953D02*
X1204Y953D01*
X1246Y953D02*
X1304Y953D01*
X1346Y953D02*
X1404Y953D01*
X1446Y953D02*
X1504Y953D01*
X1546Y953D02*
X1604Y953D01*
X1646Y953D02*
X1704Y953D01*
X1746Y953D02*
X1804Y953D01*
X947Y952D02*
X1003Y952D01*
X1047Y952D02*
X1103Y952D01*
X1147Y952D02*
X1203Y952D01*
X1247Y952D02*
X1303Y952D01*
X1347Y952D02*
X1403Y952D01*
X1447Y952D02*
X1503Y952D01*
X1547Y952D02*
X1603Y952D01*
X1647Y952D02*
X1703Y952D01*
X1747Y952D02*
X1803Y952D01*
X948Y951D02*
X1003Y951D01*
X1048Y951D02*
X1103Y951D01*
X1148Y951D02*
X1202Y951D01*
X1248Y951D02*
X1302Y951D01*
X1348Y951D02*
X1402Y951D01*
X1448Y951D02*
X1502Y951D01*
X1548Y951D02*
X1602Y951D01*
X1648Y951D02*
X1702Y951D01*
X1748Y951D02*
X1802Y951D01*
X949Y950D02*
X1001Y950D01*
X1049Y950D02*
X1101Y950D01*
X1149Y950D02*
X1201Y950D01*
X1249Y950D02*
X1301Y950D01*
X1349Y950D02*
X1401Y950D01*
X1449Y950D02*
X1501Y950D01*
X1549Y950D02*
X1601Y950D01*
X1649Y950D02*
X1701Y950D01*
X1749Y950D02*
X1801Y950D01*
X950Y949D02*
X1000Y949D01*
X1050Y949D02*
X1100Y949D01*
X1150Y949D02*
X1200Y949D01*
X1250Y949D02*
X1300Y949D01*
X1350Y949D02*
X1400Y949D01*
X1450Y949D02*
X1500Y949D01*
X1550Y949D02*
X1600Y949D01*
X1650Y949D02*
X1700Y949D01*
X1750Y949D02*
X1800Y949D01*
X951Y948D02*
X999Y948D01*
X1051Y948D02*
X1099Y948D01*
X1151Y948D02*
X1199Y948D01*
X1251Y948D02*
X1299Y948D01*
X1351Y948D02*
X1399Y948D01*
X1451Y948D02*
X1499Y948D01*
X1551Y948D02*
X1599Y948D01*
X1651Y948D02*
X1699Y948D01*
X1751Y948D02*
X1799Y948D01*
X953Y947D02*
X998Y947D01*
X1053Y947D02*
X1098Y947D01*
X1153Y947D02*
X1198Y947D01*
X1253Y947D02*
X1298Y947D01*
X1353Y947D02*
X1398Y947D01*
X1452Y947D02*
X1498Y947D01*
X1552Y947D02*
X1598Y947D01*
X1652Y947D02*
X1698Y947D01*
X1752Y947D02*
X1798Y947D01*
X954Y946D02*
X997Y946D01*
X1054Y946D02*
X1097Y946D01*
X1154Y946D02*
X1197Y946D01*
X1254Y946D02*
X1297Y946D01*
X1354Y946D02*
X1397Y946D01*
X1454Y946D02*
X1497Y946D01*
X1554Y946D02*
X1597Y946D01*
X1654Y946D02*
X1697Y946D01*
X1754Y946D02*
X1797Y946D01*
X955Y945D02*
X995Y945D01*
X1055Y945D02*
X1095Y945D01*
X1155Y945D02*
X1195Y945D01*
X1255Y945D02*
X1295Y945D01*
X1355Y945D02*
X1395Y945D01*
X1455Y945D02*
X1495Y945D01*
X1555Y945D02*
X1595Y945D01*
X1655Y945D02*
X1695Y945D01*
X1755Y945D02*
X1795Y945D01*
X957Y944D02*
X994Y944D01*
X1057Y944D02*
X1094Y944D01*
X1157Y944D02*
X1194Y944D01*
X1257Y944D02*
X1294Y944D01*
X1357Y944D02*
X1394Y944D01*
X1457Y944D02*
X1494Y944D01*
X1557Y944D02*
X1594Y944D01*
X1657Y944D02*
X1694Y944D01*
X1757Y944D02*
X1794Y944D01*
X959Y943D02*
X992Y943D01*
X1059Y943D02*
X1092Y943D01*
X1159Y943D02*
X1192Y943D01*
X1259Y943D02*
X1292Y943D01*
X1359Y943D02*
X1392Y943D01*
X1459Y943D02*
X1492Y943D01*
X1558Y943D02*
X1592Y943D01*
X1658Y943D02*
X1692Y943D01*
X1758Y943D02*
X1792Y943D01*
X961Y942D02*
X990Y942D01*
X1061Y942D02*
X1090Y942D01*
X1161Y942D02*
X1190Y942D01*
X1260Y942D02*
X1290Y942D01*
X1360Y942D02*
X1390Y942D01*
X1460Y942D02*
X1490Y942D01*
X1560Y942D02*
X1590Y942D01*
X1660Y942D02*
X1690Y942D01*
X1760Y942D02*
X1790Y942D01*
X963Y941D02*
X988Y941D01*
X1063Y941D02*
X1088Y941D01*
X1163Y941D02*
X1188Y941D01*
X1263Y941D02*
X1288Y941D01*
X1363Y941D02*
X1388Y941D01*
X1463Y941D02*
X1488Y941D01*
X1563Y941D02*
X1588Y941D01*
X1663Y941D02*
X1688Y941D01*
X1763Y941D02*
X1788Y941D01*
X965Y940D02*
X985Y940D01*
X1065Y940D02*
X1085Y940D01*
X1165Y940D02*
X1185Y940D01*
X1265Y940D02*
X1285Y940D01*
X1365Y940D02*
X1385Y940D01*
X1465Y940D02*
X1485Y940D01*
X1565Y940D02*
X1585Y940D01*
X1665Y940D02*
X1685Y940D01*
X1765Y940D02*
X1785Y940D01*
X969Y939D02*
X981Y939D01*
X1069Y939D02*
X1081Y939D01*
X1169Y939D02*
X1181Y939D01*
X1269Y939D02*
X1281Y939D01*
X1369Y939D02*
X1381Y939D01*
X1469Y939D02*
X1481Y939D01*
X1569Y939D02*
X1581Y939D01*
X1669Y939D02*
X1681Y939D01*
X1769Y939D02*
X1781Y939D01*
D02*
G04 End of Mask1*
M02*